<?xml version="1.0" standalone="no"?>
<!DOCTYPE svg PUBLIC "-//W3C//DTD SVG 20010904//EN"
 "http://www.w3.org/TR/2001/REC-SVG-20010904/DTD/svg10.dtd">
<svg version="1.0" xmlns="http://www.w3.org/2000/svg"
 width="32.000000pt" height="32.000000pt" viewBox="0 0 32.000000 32.000000"
 preserveAspectRatio="xMidYMid meet">

<g transform="translate(0.000000,32.000000) scale(0.100000,-0.100000)"
fill="#000000" stroke="none">
<path d="M82 253 c-41 -32 -69 -59 -63 -61 7 -2 11 -36 11 -88 l0 -84 130 0
130 0 0 84 c0 54 4 86 11 88 10 3 -129 119 -142 118 -2 0 -37 -26 -77 -57z
m116 -63 l2 -25 -14 25 c-18 30 -19 26 -6 -19 7 -24 6 -39 -1 -48 -18 -20 -39
-15 -40 10 l-2 22 -4 -22 c-5 -26 -25 -30 -42 -9 -9 11 -10 25 -2 50 5 21 6
34 0 31 -5 -4 -9 -13 -9 -21 0 -8 -5 -12 -10 -9 -7 4 -7 13 -1 24 8 14 22 18
68 17 54 -1 58 -3 61 -26z m55 -77 c3 -24 0 -43 -9 -53 -18 -19 -80 -18 -100
2 -18 18 -11 38 13 38 9 0 26 11 39 25 33 36 51 32 57 -12z"/>
</g>
</svg>
